<svg xmlns="http://www.w3.org/2000/svg" viewBox="0 0 100 100" role="img" aria-label="Daily Sceal">
  <rect width="100" height="100" rx="14" fill="#0d2137"/>
  <path fill="#ffffff" d="M15.134768031635957 68.28523941886122Q14.696334928503884 68.28523941886122 14.477118376937845 67.7694357681176Q14.257901825371809 67.253632117374 14.257901825371809 66.969940109465Q14.257901825371809 66.11886408573804 15.108977849098777 66.01570335558931Q16.346906610883458 65.91254262544058 17.597730463936728 65.56437516118865Q18.848554316989997 65.2162076969367 18.848554316989997 64.36513167320973V36.460154167980065Q18.848554316989997 35.351176318881286 18.190904662291885 34.86116285067485Q17.533255007593777 34.37114938246842 16.630598618792447 34.20351319597674Q15.727942229991116 34.03587700948506 14.92844657133851 33.95850646187352Q14.386852738057712 33.90692609679916 14.193426369028856 33.739289910307484Q14.0 33.57165372381581 14.0 33.00426970799783Q14.0 32.72057770008884 14.219216551566037 32.20477404934522Q14.438433103132073 31.688970398601604 14.876866206264149 31.688970398601604H32.826833252142016Q38.088030489726904 31.71476058113879 42.0081382353784 33.1848009857581Q45.92824598102989 34.654841390377406 48.53305441728515 37.15648909648395Q51.13786285354041 39.65813680259049 52.42737198039946 42.79164398085796Q53.7168811072585 45.925151159125434 53.7168811072585 49.25208470642176Q53.7168811072585 53.27535318222198 52.504742528011 56.39596526922085Q51.2926039487635 59.516577356219734 49.25517952832621 61.76032323695446Q47.21775510788892 64.0040691176892 44.71610740178238 65.44831933977133Q42.21445969567584 66.89256956185346 39.60965125942057 67.58890449035735Q37.00484282316531 68.28523941886122 34.68372639481903 68.28523941886122ZM27.539845832019942 63.95248875261484Q27.539845832019942 64.31355130813537 27.952488752614837 64.71329913746168Q28.36513167320973 65.11304696678798 29.512794796114278 65.39673897469697Q30.660457919018825 65.68043098260596 32.90420379975356 65.68043098260596Q35.25111041063701 65.68043098260596 37.22405937473135 65.17752242313094Q39.19700833882568 64.6746138636559 40.64125856090781 63.062727455082104Q42.08550878298993 61.4508410465083 42.872109350373954 58.17548786428633Q43.658709917757974 54.90013468206436 43.658709917757974 49.355245436570485Q43.658709917757974 44.55827148465485 42.79473880276241 41.57950540161046Q41.93076768776685 38.60073931856607 40.40914691807318 36.98885290999227Q38.887526148379514 35.376966501418465 36.888787001748 34.78379230306331Q34.89004785511648 34.19061810470815 32.64630197438175 34.19061810470815H27.565636014557125Z"/>
  <path fill="#e8951e" d="M72.40857380290569 69.05894489497665Q69.23638135083245 69.05894489497665 67.0055305613663 68.3110296013984Q64.77467977190015 67.56311430782016 63.87202338309883 67.2278419348368Q63.14989827205776 66.94414992692782 62.775940625268646 66.72493337536179Q62.40198297847952 66.50571682379575 62.09250078803335 66.50571682379575Q61.75722841505 66.50571682379575 61.53801186348396 66.7120382840932Q61.318795311917924 66.91835974439064 61.164054216694836 67.09889102215091Q60.622460383414044 67.71785540304325 60.17113218901338 67.93707195460928Q59.71980399461271 68.15628850617531 59.255580708943455 68.15628850617531Q58.61082614551393 68.15628850617531 58.21107831618763 67.80812104192339Q57.81133048686133 67.45995357767144 57.83712066939851 66.91835974439064Q57.888701034472874 66.22202481588675 57.888701034472874 65.93833280797776Q57.888701034472874 65.65464080006878 57.888701034472874 64.72619422873026Q57.888701034472874 62.32770725277245 57.69527466544402 60.13554173711208Q57.50184829641516 57.94337622145171 57.50184829641516 57.014929650113196Q57.50184829641516 55.9317419835516 57.95317649081582 55.57067942803107Q58.40450468521649 55.20961687251054 58.99767888357165 55.20961687251054Q60.23560764535633 55.20961687251054 60.5450898358025 56.29280453907213Q60.72562111356277 56.93755910250165 61.11247385162048 58.12390749921197Q61.49932658967819 59.31025589592229 62.298822248330794 60.70292575293006Q63.33042954981803 62.45665816545835 64.90363068458606 63.81064274866035Q66.47683181935409 65.16462733186235 68.44978078344843 65.93833280797777Q70.42272974754276 66.7120382840932 72.61489526320314 66.7120382840932Q74.05914548528526 66.7120382840932 75.36154970341289 66.19623463334958Q76.66395392154053 65.68043098260596 77.4892397627303 64.62303349858155Q78.3145256039201 63.56563601455713 78.26294523884573 61.966644697251915Q78.21136487377137 59.516577356219734 76.67684901280911 57.866005673840164Q75.14233315184686 56.215433991460586 72.89858727111212 54.977505229675906Q70.65484139037738 53.739576467891226 68.41109550964265 52.55322807118091Q66.70894346218873 51.65057168237958 64.92942086712324 50.61896438089234Q63.14989827205776 49.58735707940511 61.65406768490128 48.272057770008885Q60.15823709774479 46.95675846061266 59.229790526406276 45.20302604808437Q58.301343955067765 43.449293635556074 58.301343955067765 41.128177207209795Q58.301343955067765 38.8328509614007 59.255580708943455 36.9501676361865Q60.209817462819146 35.0674843109723 61.96354987534744 33.726394819038894Q63.71728228787574 32.38530532710549 66.11576926383356 31.663180216064426Q68.51425623979138 30.94105510502336 71.40275668395563 30.94105510502336Q73.7496632948391 30.94105510502336 75.19391351692121 31.276327478006714Q76.63816373900335 31.611599850990068 77.54082012780468 31.94687222397342Q78.44347651660601 32.28214459695677 79.19139181018426 32.28214459695677Q79.83614637361377 32.28214459695677 80.01667765137404 32.02424277158496Q80.1972089291343 31.76634094621315 80.55827148465484 31.534229303378524Q80.84196349256382 31.353698025618257 81.28039659569589 31.353698025618257Q81.92515115912542 31.353698025618257 82.51832535748058 31.637390033527247Q83.11149955583574 31.921082041436236 83.11149955583574 32.33372496203113Q83.13728973837291 33.67481445396453 83.292030833596 35.376966501418465Q83.44677192881909 37.0791185488724 83.60151302404218 38.47178840588017Q83.75625411926526 39.864458262887936 83.75625411926526 40.27710118348283Q83.75625411926526 41.128177207209795 83.26624065105882 41.45055448892455Q82.77622718285238 41.77293177063932 82.13147261942287 41.77293177063932Q81.64145915121642 41.77293177063932 81.33197696077025 41.61819067541623Q81.02249477032409 41.46344958019314 80.84196349256382 41.17975757228416Q80.84196349256382 41.15396738974698 80.64853712353496 40.35447173109437Q80.45511075450611 39.55497607244176 79.9264120124939 38.368627675731446Q79.39771327048169 37.18227927902113 78.40479124280023 35.99593088231081Q77.41186921511877 34.80958248560049 75.78708771527639 34.010086826947884Q74.16230621543399 33.210591168295274 71.78960942201334 33.210591168295274Q70.2421984697825 33.210591168295274 68.79794824770036 33.63612918015876Q67.35369802561824 34.06166719202224 66.42525145427973 35.02879903716652Q65.49680488294122 35.99593088231081 65.49680488294122 37.67229274722756Q65.49680488294122 39.761297532739206 66.91526492248616 41.36028885004442Q68.33372496203111 42.95928016734963 70.50010029515431 44.2229991116715Q72.6664756282775 45.48671805599336 74.85864114393786 46.595695905092136Q76.87027538183797 47.60151302404219 78.8432243459323 48.72338596440956Q80.81617331002664 49.84525890477692 82.42805971860045 51.23792876178469Q84.03994612717425 52.63059861879245 85.01997306358712 54.39722612258934Q86.0 56.16385362638623 86.0 58.43338968965814Q86.0 61.708742871880105 84.1173166747858 64.09433475656934Q82.2346333495716 66.47992664125856 79.15270653637847 67.7694357681176Q76.07077972318537 69.05894489497665 72.40857380290569 69.05894489497665Z"/>
</svg>
